<mxfile host="app.diagrams.net" modified="2021-07-16T08:36:07.692Z" agent="5.0 (Windows NT 10.0; Win64; x64) AppleWebKit/537.36 (KHTML, like Gecko) Chrome/91.0.4472.124 Safari/537.36" etag="lwfhs4QLcaiYksHOPPRc" version="14.8.6" type="github">
  <diagram id="A2kMHCdc1lW4nczdTmE9" name="Page-1">
    <mxGraphModel dx="868" dy="1651" grid="1" gridSize="10" guides="1" tooltips="1" connect="1" arrows="1" fold="1" page="1" pageScale="1" pageWidth="827" pageHeight="1169" math="0" shadow="0">
      <root>
        <mxCell id="0" />
        <mxCell id="1" parent="0" />
        <mxCell id="Pe-F2RKa272RoO4Pzcp9-3" value="" style="html=1;aspect=fixed;strokeColor=none;shadow=0;align=center;verticalAlign=top;fillColor=#3B8DF1;shape=mxgraph.gcp2.cloud_computer" vertex="1" parent="1">
          <mxGeometry x="270" y="-910" width="100" height="88" as="geometry" />
        </mxCell>
        <mxCell id="Pe-F2RKa272RoO4Pzcp9-4" value="" style="ellipse;shape=cloud;whiteSpace=wrap;html=1;" vertex="1" parent="1">
          <mxGeometry x="460" y="-1000" width="120" height="80" as="geometry" />
        </mxCell>
        <mxCell id="Pe-F2RKa272RoO4Pzcp9-5" value="" style="shape=image;html=1;verticalAlign=top;verticalLabelPosition=bottom;labelBackgroundColor=#ffffff;imageAspect=0;aspect=fixed;image=https://cdn3.iconfinder.com/data/icons/essential-pack/32/21-Mouse-128.png" vertex="1" parent="1">
          <mxGeometry x="414" y="-850" width="128" height="128" as="geometry" />
        </mxCell>
      </root>
    </mxGraphModel>
  </diagram>
</mxfile>
